<svg width="375" height="184" viewBox="0 0 375 184" fill="none" xmlns="http://www.w3.org/2000/svg">
<g clip-path="url(#clip0)">
<rect width="375" height="184" fill="white"/>
<ellipse cx="88.5" cy="16" rx="302.5" ry="168" fill="#47E6B1"/>
<path d="M-13 16H278V113C278 129.569 264.569 143 248 143H17C0.431459 143 -13 129.569 -13 113V16Z" fill="#47E6B1"/>
<path d="M22.014 104.553L25.542 95.2152H28.02L31.324 104.553H29L28.314 102.537H24.828L24.156 104.553H22.014ZM25.374 100.871H27.754L26.55 97.3292L25.374 100.871ZM34.5077 104.553H32.4357V94.7952H34.5077V104.553ZM36.3595 104.553V98.2112C36.4902 98.1085 36.7235 97.9825 37.0595 97.8332C37.3955 97.6838 37.7782 97.5532 38.2075 97.4412C38.6462 97.3198 39.0849 97.2592 39.5235 97.2592C39.9622 97.2592 40.3075 97.2918 40.5595 97.3572C40.8115 97.4225 41.0029 97.5065 41.1335 97.6092V99.1352C40.9189 99.0885 40.6389 99.0558 40.2935 99.0372C39.9482 99.0185 39.6029 99.0138 39.2575 99.0232C38.9215 99.0232 38.6509 99.0418 38.4455 99.0792V104.553H36.3595ZM45.3214 104.763C44.6027 104.763 43.9727 104.618 43.4314 104.329C42.8901 104.03 42.4701 103.61 42.1714 103.069C41.8727 102.528 41.7234 101.874 41.7234 101.109C41.7234 99.8772 42.0267 98.9252 42.6334 98.2532C43.2494 97.5718 44.1221 97.2312 45.2514 97.2312C46.4181 97.2312 47.2581 97.6092 47.7714 98.3652C48.2847 99.1118 48.5367 100.176 48.5274 101.557H43.8514C43.9354 102.033 44.1361 102.397 44.4534 102.649C44.7801 102.901 45.2374 103.027 45.8254 103.027C46.2174 103.027 46.6001 102.966 46.9734 102.845C47.3561 102.714 47.6641 102.598 47.8974 102.495V104.287C47.5614 104.427 47.1834 104.539 46.7634 104.623C46.3527 104.716 45.8721 104.763 45.3214 104.763ZM45.1674 98.8272C44.8314 98.8272 44.5421 98.9345 44.2994 99.1492C44.0661 99.3545 43.9121 99.7138 43.8374 100.227H46.4554C46.3901 99.7232 46.2547 99.3638 46.0494 99.1492C45.8441 98.9345 45.5501 98.8272 45.1674 98.8272ZM52.7067 104.763C52.1281 104.763 51.6054 104.693 51.1387 104.553C50.6721 104.404 50.2987 104.156 50.0187 103.811C49.7387 103.456 49.5987 102.966 49.5987 102.341C49.5987 101.688 49.8041 101.165 50.2147 100.773C50.6254 100.372 51.2647 100.171 52.1327 100.171C52.4967 100.171 52.8467 100.218 53.1827 100.311C53.5281 100.404 53.8221 100.516 54.0647 100.647V100.199C54.0647 99.7698 53.9247 99.4618 53.6447 99.2752C53.3741 99.0792 52.9914 98.9812 52.4967 98.9812C52.0767 98.9812 51.6567 99.0558 51.2367 99.2052C50.8167 99.3452 50.4854 99.5178 50.2427 99.7232V97.8752C50.4667 97.7258 50.8354 97.5858 51.3487 97.4552C51.8714 97.3245 52.4454 97.2592 53.0707 97.2592C53.3414 97.2592 53.6494 97.2918 53.9947 97.3572C54.3494 97.4132 54.6901 97.5298 55.0167 97.7072C55.3434 97.8752 55.6094 98.1225 55.8147 98.4492C56.0294 98.7758 56.1367 99.2052 56.1367 99.7372L56.1227 103.083C56.1134 103.69 55.8101 104.124 55.2127 104.385C54.6154 104.637 53.7801 104.763 52.7067 104.763ZM51.6707 102.383C51.6707 102.663 51.7827 102.887 52.0067 103.055C52.2401 103.214 52.4967 103.293 52.7767 103.293C53.2527 103.293 53.5841 103.26 53.7707 103.195C53.9667 103.13 54.0647 102.999 54.0647 102.803V101.711C53.7287 101.599 53.3694 101.543 52.9867 101.543C52.1094 101.543 51.6707 101.823 51.6707 102.383ZM61.3765 104.763C60.6391 104.763 59.9858 104.651 59.4165 104.427C58.8471 104.203 58.3991 103.816 58.0725 103.265C57.7551 102.714 57.5965 101.944 57.5965 100.955C57.5965 99.8072 57.8765 98.9018 58.4365 98.2392C58.9965 97.5765 59.8458 97.2452 60.9845 97.2452C61.1525 97.2452 61.3905 97.2638 61.6985 97.3012C62.0065 97.3385 62.3051 97.4365 62.5945 97.5952V94.5572H64.6665V102.705C64.6665 103.162 64.5078 103.545 64.1905 103.853C63.8731 104.152 63.4625 104.38 62.9585 104.539C62.4545 104.688 61.9271 104.763 61.3765 104.763ZM61.4605 103.013C61.7965 103.013 62.0671 102.971 62.2725 102.887C62.4871 102.794 62.5945 102.658 62.5945 102.481V99.2192C62.2398 99.0232 61.8758 98.9252 61.5025 98.9252C60.9051 98.9252 60.4525 99.0792 60.1445 99.3872C59.8458 99.6952 59.6965 100.236 59.6965 101.011C59.6965 101.636 59.8225 102.126 60.0745 102.481C60.3358 102.836 60.7978 103.013 61.4605 103.013ZM68.0597 107.297C67.5557 107.297 67.1357 107.213 66.7997 107.045V105.351C67.0797 105.454 67.355 105.505 67.6257 105.505C67.8964 105.505 68.1297 105.426 68.3257 105.267C68.5217 105.118 68.6757 104.852 68.7877 104.469L65.9457 97.4692H68.3257L69.8377 102.117L71.3217 97.4692H73.5617L70.7757 104.665C70.393 105.645 69.9684 106.326 69.5017 106.709C69.0444 107.101 68.5637 107.297 68.0597 107.297ZM78.6877 104.553V94.6692H80.7877V97.7912C81.0863 97.6325 81.4083 97.5065 81.7537 97.4132C82.099 97.3198 82.4443 97.2732 82.7897 97.2732C83.303 97.2732 83.7557 97.3572 84.1477 97.5252C84.5397 97.6838 84.843 97.9592 85.0577 98.3512C85.2817 98.7338 85.3937 99.2518 85.3937 99.9052V104.553H83.3077V100.339C83.3077 99.4432 82.8597 98.9952 81.9637 98.9952C81.7397 98.9952 81.5157 99.0278 81.2917 99.0932C81.077 99.1585 80.909 99.2378 80.7877 99.3312L80.7597 104.553H78.6877ZM89.9763 104.763C89.3976 104.763 88.8749 104.693 88.4083 104.553C87.9416 104.404 87.5683 104.156 87.2883 103.811C87.0083 103.456 86.8683 102.966 86.8683 102.341C86.8683 101.688 87.0736 101.165 87.4843 100.773C87.8949 100.372 88.5343 100.171 89.4023 100.171C89.7663 100.171 90.1163 100.218 90.4523 100.311C90.7976 100.404 91.0916 100.516 91.3343 100.647V100.199C91.3343 99.7698 91.1943 99.4618 90.9143 99.2752C90.6436 99.0792 90.2609 98.9812 89.7663 98.9812C89.3463 98.9812 88.9263 99.0558 88.5063 99.2052C88.0863 99.3452 87.7549 99.5178 87.5123 99.7232V97.8752C87.7363 97.7258 88.1049 97.5858 88.6183 97.4552C89.1409 97.3245 89.7149 97.2592 90.3403 97.2592C90.6109 97.2592 90.9189 97.2918 91.2643 97.3572C91.6189 97.4132 91.9596 97.5298 92.2863 97.7072C92.6129 97.8752 92.8789 98.1225 93.0843 98.4492C93.2989 98.7758 93.4063 99.2052 93.4063 99.7372L93.3923 103.083C93.3829 103.69 93.0796 104.124 92.4823 104.385C91.8849 104.637 91.0496 104.763 89.9763 104.763ZM88.9403 102.383C88.9403 102.663 89.0523 102.887 89.2763 103.055C89.5096 103.214 89.7663 103.293 90.0463 103.293C90.5223 103.293 90.8536 103.26 91.0403 103.195C91.2363 103.13 91.3343 102.999 91.3343 102.803V101.711C90.9983 101.599 90.6389 101.543 90.2563 101.543C89.3789 101.543 88.9403 101.823 88.9403 102.383ZM97.2142 104.553L94.2602 97.4692H96.5142L98.3902 102.257L100.056 97.4692H102.254L99.3002 104.553H97.2142ZM103.529 96.5032V94.8932H105.685V96.5032H103.529ZM103.571 104.553V97.5672H105.657L105.671 104.553H103.571ZM107.535 98.0712C107.769 97.9405 108.095 97.8145 108.515 97.6932C108.945 97.5718 109.397 97.4738 109.873 97.3992C110.359 97.3152 110.802 97.2732 111.203 97.2732C112.155 97.2732 112.893 97.4598 113.415 97.8332C113.947 98.2065 114.213 98.8598 114.213 99.7932V104.553H112.127V100.213C112.127 99.8492 112.025 99.5552 111.819 99.3312C111.614 99.1072 111.259 98.9952 110.755 98.9952C110.541 98.9952 110.326 99.0232 110.111 99.0792C109.897 99.1258 109.733 99.1772 109.621 99.2332V104.553H107.535V98.0712ZM118.783 104.763C117.821 104.716 117.061 104.408 116.501 103.839C115.95 103.27 115.675 102.402 115.675 101.235C115.675 100.19 115.843 99.3825 116.179 98.8132C116.515 98.2345 116.981 97.8332 117.579 97.6092C118.185 97.3852 118.89 97.2732 119.693 97.2732C120.579 97.2732 121.289 97.4412 121.821 97.7772C122.353 98.1038 122.619 98.5705 122.619 99.1772V104.637C122.619 105.626 122.301 106.378 121.667 106.891C121.041 107.404 120.155 107.661 119.007 107.661C118.381 107.661 117.845 107.619 117.397 107.535C116.958 107.451 116.622 107.344 116.389 107.213V105.379C116.529 105.444 116.734 105.519 117.005 105.603C117.275 105.696 117.579 105.771 117.915 105.827C118.251 105.892 118.587 105.925 118.923 105.925C119.567 105.925 120.001 105.794 120.225 105.533C120.458 105.281 120.575 104.954 120.575 104.553V104.161C120.351 104.348 120.094 104.492 119.805 104.595C119.515 104.707 119.175 104.763 118.783 104.763ZM119.315 103.195C119.791 103.195 120.211 103.092 120.575 102.887V99.6392C120.575 99.3405 120.458 99.1492 120.225 99.0652C119.991 98.9718 119.735 98.9252 119.455 98.9252C118.811 98.9252 118.363 99.1305 118.111 99.5412C117.868 99.9518 117.747 100.474 117.747 101.109C117.747 101.753 117.891 102.262 118.181 102.635C118.47 103.008 118.848 103.195 119.315 103.195ZM130.965 104.763C130.386 104.763 129.863 104.693 129.397 104.553C128.93 104.404 128.557 104.156 128.277 103.811C127.997 103.456 127.857 102.966 127.857 102.341C127.857 101.688 128.062 101.165 128.473 100.773C128.883 100.372 129.523 100.171 130.391 100.171C130.755 100.171 131.105 100.218 131.441 100.311C131.786 100.404 132.08 100.516 132.323 100.647V100.199C132.323 99.7698 132.183 99.4618 131.903 99.2752C131.632 99.0792 131.249 98.9812 130.755 98.9812C130.335 98.9812 129.915 99.0558 129.495 99.2052C129.075 99.3452 128.743 99.5178 128.501 99.7232V97.8752C128.725 97.7258 129.093 97.5858 129.607 97.4552C130.129 97.3245 130.703 97.2592 131.329 97.2592C131.599 97.2592 131.907 97.2918 132.253 97.3572C132.607 97.4132 132.948 97.5298 133.275 97.7072C133.601 97.8752 133.867 98.1225 134.073 98.4492C134.287 98.7758 134.395 99.2052 134.395 99.7372L134.381 103.083C134.371 103.69 134.068 104.124 133.471 104.385C132.873 104.637 132.038 104.763 130.965 104.763ZM129.929 102.383C129.929 102.663 130.041 102.887 130.265 103.055C130.498 103.214 130.755 103.293 131.035 103.293C131.511 103.293 131.842 103.26 132.029 103.195C132.225 103.13 132.323 102.999 132.323 102.803V101.711C131.987 101.599 131.627 101.543 131.245 101.543C130.367 101.543 129.929 101.823 129.929 102.383ZM139.564 104.735C138.892 104.735 138.272 104.604 137.702 104.343C137.142 104.072 136.694 103.671 136.358 103.139C136.022 102.598 135.854 101.921 135.854 101.109C135.854 100.241 136.013 99.5272 136.33 98.9672C136.648 98.3978 137.082 97.9732 137.632 97.6932C138.192 97.4132 138.832 97.2732 139.55 97.2732C139.933 97.2732 140.325 97.3152 140.726 97.3992C141.137 97.4738 141.496 97.5812 141.804 97.7212V99.5132C141.478 99.3732 141.156 99.2518 140.838 99.1492C140.53 99.0465 140.213 98.9952 139.886 98.9952C139.298 98.9952 138.822 99.1445 138.458 99.4432C138.104 99.7325 137.926 100.208 137.926 100.871C137.926 101.571 138.08 102.098 138.388 102.453C138.706 102.808 139.238 102.985 139.984 102.985C140.32 102.985 140.652 102.924 140.978 102.803C141.305 102.682 141.585 102.556 141.818 102.425V104.203C141.492 104.371 141.151 104.502 140.796 104.595C140.442 104.688 140.031 104.735 139.564 104.735ZM146.592 104.735C145.92 104.735 145.299 104.604 144.73 104.343C144.17 104.072 143.722 103.671 143.386 103.139C143.05 102.598 142.882 101.921 142.882 101.109C142.882 100.241 143.04 99.5272 143.358 98.9672C143.675 98.3978 144.109 97.9732 144.66 97.6932C145.22 97.4132 145.859 97.2732 146.578 97.2732C146.96 97.2732 147.352 97.3152 147.754 97.3992C148.164 97.4738 148.524 97.5812 148.832 97.7212V99.5132C148.505 99.3732 148.183 99.2518 147.866 99.1492C147.558 99.0465 147.24 98.9952 146.914 98.9952C146.326 98.9952 145.85 99.1445 145.486 99.4432C145.131 99.7325 144.954 100.208 144.954 100.871C144.954 101.571 145.108 102.098 145.416 102.453C145.733 102.808 146.265 102.985 147.012 102.985C147.348 102.985 147.679 102.924 148.006 102.803C148.332 102.682 148.612 102.556 148.846 102.425V104.203C148.519 104.371 148.178 104.502 147.824 104.595C147.469 104.688 147.058 104.735 146.592 104.735ZM153.493 104.763C151.094 104.763 149.9 103.503 149.909 100.983C149.909 99.6485 150.212 98.6918 150.819 98.1132C151.426 97.5252 152.317 97.2312 153.493 97.2312C154.678 97.2312 155.579 97.5345 156.195 98.1412C156.811 98.7385 157.119 99.6858 157.119 100.983C157.119 102.224 156.806 103.167 156.181 103.811C155.556 104.446 154.66 104.763 153.493 104.763ZM153.493 103.097C154.006 103.097 154.394 102.92 154.655 102.565C154.916 102.201 155.047 101.674 155.047 100.983C155.047 100.199 154.912 99.6532 154.641 99.3452C154.38 99.0372 153.997 98.8832 153.493 98.8832C152.961 98.8832 152.574 99.0418 152.331 99.3592C152.088 99.6765 151.967 100.218 151.967 100.983C151.967 101.692 152.088 102.224 152.331 102.579C152.583 102.924 152.97 103.097 153.493 103.097ZM161.891 104.763C160.901 104.763 160.099 104.53 159.483 104.063C158.867 103.596 158.559 102.859 158.559 101.851V97.4692H160.645V101.683C160.645 102.131 160.743 102.467 160.939 102.691C161.144 102.906 161.466 103.013 161.905 103.013C162.343 103.013 162.661 102.906 162.857 102.691C163.062 102.467 163.165 102.131 163.165 101.683V97.4692H165.125V101.851C165.125 102.859 164.835 103.596 164.257 104.063C163.678 104.53 162.889 104.763 161.891 104.763ZM166.967 98.0712C167.2 97.9405 167.527 97.8145 167.947 97.6932C168.376 97.5718 168.829 97.4738 169.305 97.3992C169.79 97.3152 170.234 97.2732 170.635 97.2732C171.587 97.2732 172.324 97.4598 172.847 97.8332C173.379 98.2065 173.645 98.8598 173.645 99.7932V104.553H171.559V100.213C171.559 99.8492 171.456 99.5552 171.251 99.3312C171.046 99.1072 170.691 98.9952 170.187 98.9952C169.972 98.9952 169.758 99.0232 169.543 99.0792C169.328 99.1258 169.165 99.1772 169.053 99.2332V104.553H166.967V98.0712ZM178.396 104.833C177.575 104.833 176.964 104.642 176.562 104.259C176.161 103.867 175.96 103.316 175.96 102.607V99.0652H174.924V97.4692H175.96V95.5232H178.144V97.4692H179.698V99.0652H178.144V102.341C178.144 102.584 178.196 102.766 178.298 102.887C178.401 102.999 178.574 103.055 178.816 103.055C179.143 103.055 179.437 102.957 179.698 102.761V104.539C179.493 104.651 179.278 104.726 179.054 104.763C178.83 104.81 178.611 104.833 178.396 104.833ZM22.826 120.553V111.215H25.094V118.775H29.154V120.553H22.826ZM34.7497 120.735C33.8257 120.735 33.023 120.562 32.3417 120.217C31.6603 119.872 31.133 119.34 30.7597 118.621C30.3863 117.902 30.1997 116.992 30.1997 115.891C30.1997 114.295 30.5963 113.086 31.3897 112.265C32.183 111.444 33.303 111.033 34.7497 111.033C35.6737 111.033 36.4763 111.206 37.1577 111.551C37.8483 111.896 38.3803 112.428 38.7537 113.147C39.127 113.866 39.3137 114.776 39.3137 115.877C39.3137 117.482 38.9123 118.696 38.1097 119.517C37.3163 120.329 36.1963 120.735 34.7497 120.735ZM34.7497 118.887C35.4683 118.887 36.019 118.663 36.4017 118.215C36.7843 117.758 36.9757 116.978 36.9757 115.877C36.9757 114.766 36.7843 113.992 36.4017 113.553C36.019 113.105 35.4683 112.881 34.7497 112.881C34.0403 112.881 33.4943 113.11 33.1117 113.567C32.729 114.015 32.5377 114.794 32.5377 115.905C32.5377 117.006 32.729 117.781 33.1117 118.229C33.4943 118.668 34.0403 118.887 34.7497 118.887ZM45.0719 120.735C44.1573 120.735 43.3546 120.572 42.6639 120.245C41.9826 119.918 41.4553 119.4 41.0819 118.691C40.7086 117.982 40.5219 117.048 40.5219 115.891C40.5219 114.752 40.7086 113.824 41.0819 113.105C41.4553 112.386 41.9826 111.859 42.6639 111.523C43.3453 111.178 44.1479 111.005 45.0719 111.005C45.6599 111.005 46.2293 111.066 46.7799 111.187C47.3399 111.308 47.8813 111.476 48.4039 111.691V113.749C47.8439 113.45 47.3213 113.212 46.8359 113.035C46.3599 112.858 45.8653 112.769 45.3519 112.769C44.8199 112.769 44.3626 112.867 43.9799 113.063C43.6066 113.25 43.3219 113.572 43.1259 114.029C42.9299 114.477 42.8319 115.093 42.8319 115.877C42.8319 116.652 42.9299 117.268 43.1259 117.725C43.3313 118.173 43.6159 118.495 43.9799 118.691C44.3439 118.887 44.7686 118.985 45.2539 118.985C45.5059 118.985 45.7393 118.971 45.9539 118.943C46.1779 118.906 46.3739 118.845 46.5419 118.761V117.109H45.0019V115.345H48.8099V119.741C48.2313 120.068 47.6246 120.315 46.9899 120.483C46.3646 120.651 45.7253 120.735 45.0719 120.735ZM50.7987 120.553V111.215H53.0667V120.553H50.7987ZM55.0506 120.553V111.215H56.9826L61.1126 116.773V111.215H63.1986V120.553H61.4906L57.1366 114.855V120.553H55.0506ZM69.0506 120.553V111.215H70.9826L75.1126 116.773V111.215H77.1986V120.553H75.4906L71.1366 114.855V120.553H69.0506ZM83.3395 120.735C82.4155 120.735 81.6128 120.562 80.9315 120.217C80.2502 119.872 79.7228 119.34 79.3495 118.621C78.9762 117.902 78.7895 116.992 78.7895 115.891C78.7895 114.295 79.1862 113.086 79.9795 112.265C80.7728 111.444 81.8928 111.033 83.3395 111.033C84.2635 111.033 85.0662 111.206 85.7475 111.551C86.4382 111.896 86.9702 112.428 87.3435 113.147C87.7168 113.866 87.9035 114.776 87.9035 115.877C87.9035 117.482 87.5022 118.696 86.6995 119.517C85.9062 120.329 84.7862 120.735 83.3395 120.735ZM83.3395 118.887C84.0582 118.887 84.6088 118.663 84.9915 118.215C85.3742 117.758 85.5655 116.978 85.5655 115.877C85.5655 114.766 85.3742 113.992 84.9915 113.553C84.6088 113.105 84.0582 112.881 83.3395 112.881C82.6302 112.881 82.0842 113.11 81.7015 113.567C81.3188 114.015 81.1275 114.794 81.1275 115.905C81.1275 117.006 81.3188 117.781 81.7015 118.229C82.0842 118.668 82.6302 118.887 83.3395 118.887ZM90.9309 120.553L88.3129 111.215H90.7909L92.2609 117.753L94.1509 111.215H95.9009L97.8049 117.767L99.2749 111.215H101.753L99.1349 120.553H96.8949L95.0329 114.505L93.1709 120.553H90.9309ZM109.791 120.833C108.969 120.833 108.358 120.642 107.957 120.259C107.555 119.867 107.355 119.316 107.355 118.607V115.065H106.319V113.469H107.355V111.523H109.539V113.469H111.093V115.065H109.539V118.341C109.539 118.584 109.59 118.766 109.693 118.887C109.795 118.999 109.968 119.055 110.211 119.055C110.537 119.055 110.831 118.957 111.093 118.761V120.539C110.887 120.651 110.673 120.726 110.449 120.763C110.225 120.81 110.005 120.833 109.791 120.833ZM115.868 120.763C113.469 120.763 112.275 119.503 112.284 116.983C112.284 115.648 112.587 114.692 113.194 114.113C113.801 113.525 114.692 113.231 115.868 113.231C117.053 113.231 117.954 113.534 118.57 114.141C119.186 114.738 119.494 115.686 119.494 116.983C119.494 118.224 119.181 119.167 118.556 119.811C117.931 120.446 117.035 120.763 115.868 120.763ZM115.868 119.097C116.381 119.097 116.769 118.92 117.03 118.565C117.291 118.201 117.422 117.674 117.422 116.983C117.422 116.199 117.287 115.653 117.016 115.345C116.755 115.037 116.372 114.883 115.868 114.883C115.336 114.883 114.949 115.042 114.706 115.359C114.463 115.676 114.342 116.218 114.342 116.983C114.342 117.692 114.463 118.224 114.706 118.579C114.958 118.924 115.345 119.097 115.868 119.097ZM126.595 120.553L124.229 113.469H126.469L127.715 117.977L128.891 113.469H130.431L131.649 118.061L132.909 113.469H135.107L132.755 120.553H130.865L129.647 116.591L128.485 120.553H126.595ZM136.383 112.503V110.893H138.539V112.503H136.383ZM136.425 120.553V113.567H138.511L138.525 120.553H136.425ZM143.287 120.833C142.466 120.833 141.854 120.642 141.453 120.259C141.052 119.867 140.851 119.316 140.851 118.607V115.065H139.815V113.469H140.851V111.523H143.035V113.469H144.589V115.065H143.035V118.341C143.035 118.584 143.086 118.766 143.189 118.887C143.292 118.999 143.464 119.055 143.707 119.055C144.034 119.055 144.328 118.957 144.589 118.761V120.539C144.384 120.651 144.169 120.726 143.945 120.763C143.721 120.81 143.502 120.833 143.287 120.833ZM146.172 120.553V110.669H148.272V113.791C148.571 113.632 148.893 113.506 149.238 113.413C149.583 113.32 149.929 113.273 150.274 113.273C150.787 113.273 151.24 113.357 151.632 113.525C152.024 113.684 152.327 113.959 152.542 114.351C152.766 114.734 152.878 115.252 152.878 115.905V120.553H150.792V116.339C150.792 115.443 150.344 114.995 149.448 114.995C149.224 114.995 149 115.028 148.776 115.093C148.561 115.158 148.393 115.238 148.272 115.331L148.244 120.553H146.172ZM160.14 123.297C159.636 123.297 159.216 123.213 158.88 123.045V121.351C159.16 121.454 159.435 121.505 159.706 121.505C159.976 121.505 160.21 121.426 160.406 121.267C160.602 121.118 160.756 120.852 160.868 120.469L158.026 113.469H160.406L161.918 118.117L163.402 113.469H165.642L162.856 120.665C162.473 121.645 162.048 122.326 161.582 122.709C161.124 123.101 160.644 123.297 160.14 123.297ZM169.653 120.763C167.254 120.763 166.06 119.503 166.069 116.983C166.069 115.648 166.372 114.692 166.979 114.113C167.586 113.525 168.477 113.231 169.653 113.231C170.838 113.231 171.739 113.534 172.355 114.141C172.971 114.738 173.279 115.686 173.279 116.983C173.279 118.224 172.966 119.167 172.341 119.811C171.716 120.446 170.82 120.763 169.653 120.763ZM169.653 119.097C170.166 119.097 170.554 118.92 170.815 118.565C171.076 118.201 171.207 117.674 171.207 116.983C171.207 116.199 171.072 115.653 170.801 115.345C170.54 115.037 170.157 114.883 169.653 114.883C169.121 114.883 168.734 115.042 168.491 115.359C168.248 115.676 168.127 116.218 168.127 116.983C168.127 117.692 168.248 118.224 168.491 118.579C168.743 118.924 169.13 119.097 169.653 119.097ZM178.051 120.763C177.062 120.763 176.259 120.53 175.643 120.063C175.027 119.596 174.719 118.859 174.719 117.851V113.469H176.805V117.683C176.805 118.131 176.903 118.467 177.099 118.691C177.304 118.906 177.626 119.013 178.065 119.013C178.504 119.013 178.821 118.906 179.017 118.691C179.222 118.467 179.325 118.131 179.325 117.683V113.469H181.285V117.851C181.285 118.859 180.996 119.596 180.417 120.063C179.838 120.53 179.05 120.763 178.051 120.763ZM183.127 120.553V114.211C183.258 114.108 183.491 113.982 183.827 113.833C184.163 113.684 184.546 113.553 184.975 113.441C185.414 113.32 185.852 113.259 186.291 113.259C186.73 113.259 187.075 113.292 187.327 113.357C187.579 113.422 187.77 113.506 187.901 113.609V115.135C187.686 115.088 187.406 115.056 187.061 115.037C186.716 115.018 186.37 115.014 186.025 115.023C185.689 115.023 185.418 115.042 185.213 115.079V120.553H183.127ZM196.191 120.763C195.472 120.763 194.842 120.618 194.301 120.329C193.759 120.03 193.339 119.61 193.041 119.069C192.742 118.528 192.593 117.874 192.593 117.109C192.593 115.877 192.896 114.925 193.503 114.253C194.119 113.572 194.991 113.231 196.121 113.231C197.287 113.231 198.127 113.609 198.641 114.365C199.154 115.112 199.406 116.176 199.397 117.557H194.721C194.805 118.033 195.005 118.397 195.323 118.649C195.649 118.901 196.107 119.027 196.695 119.027C197.087 119.027 197.469 118.966 197.843 118.845C198.225 118.714 198.533 118.598 198.767 118.495V120.287C198.431 120.427 198.053 120.539 197.633 120.623C197.222 120.716 196.741 120.763 196.191 120.763ZM196.037 114.827C195.701 114.827 195.411 114.934 195.169 115.149C194.935 115.354 194.781 115.714 194.707 116.227H197.325C197.259 115.723 197.124 115.364 196.919 115.149C196.713 114.934 196.419 114.827 196.037 114.827ZM207.426 115.793V120.553H205.34V116.213C205.34 115.849 205.237 115.555 205.032 115.331C204.827 115.107 204.472 114.995 203.968 114.995C203.753 114.995 203.553 115.023 203.366 115.079C203.189 115.126 203.044 115.177 202.932 115.233V120.553H200.846V114.071C201.079 113.94 201.406 113.814 201.826 113.693C202.255 113.572 202.708 113.474 203.184 113.399C203.669 113.315 204.113 113.273 204.514 113.273C204.962 113.273 205.359 113.315 205.704 113.399C206.059 113.474 206.357 113.595 206.6 113.763C206.973 113.614 207.361 113.497 207.762 113.413C208.173 113.32 208.555 113.273 208.91 113.273C209.862 113.273 210.585 113.46 211.08 113.833C211.575 114.206 211.822 114.86 211.822 115.793V120.553H209.736V116.213C209.736 115.849 209.633 115.555 209.428 115.331C209.223 115.107 208.868 114.995 208.364 114.995C208.168 114.995 207.986 115.023 207.818 115.079C207.65 115.126 207.51 115.191 207.398 115.275C207.417 115.434 207.426 115.606 207.426 115.793ZM216.4 120.763C215.821 120.763 215.299 120.693 214.832 120.553C214.365 120.404 213.992 120.156 213.712 119.811C213.432 119.456 213.292 118.966 213.292 118.341C213.292 117.688 213.497 117.165 213.908 116.773C214.319 116.372 214.958 116.171 215.826 116.171C216.19 116.171 216.54 116.218 216.876 116.311C217.221 116.404 217.515 116.516 217.758 116.647V116.199C217.758 115.77 217.618 115.462 217.338 115.275C217.067 115.079 216.685 114.981 216.19 114.981C215.77 114.981 215.35 115.056 214.93 115.205C214.51 115.345 214.179 115.518 213.936 115.723V113.875C214.16 113.726 214.529 113.586 215.042 113.455C215.565 113.324 216.139 113.259 216.764 113.259C217.035 113.259 217.343 113.292 217.688 113.357C218.043 113.413 218.383 113.53 218.71 113.707C219.037 113.875 219.303 114.122 219.508 114.449C219.723 114.776 219.83 115.205 219.83 115.737L219.816 119.083C219.807 119.69 219.503 120.124 218.906 120.385C218.309 120.637 217.473 120.763 216.4 120.763ZM215.364 118.383C215.364 118.663 215.476 118.887 215.7 119.055C215.933 119.214 216.19 119.293 216.47 119.293C216.946 119.293 217.277 119.26 217.464 119.195C217.66 119.13 217.758 118.999 217.758 118.803V117.711C217.422 117.599 217.063 117.543 216.68 117.543C215.803 117.543 215.364 117.823 215.364 118.383ZM221.682 112.503V110.893H223.838V112.503H221.682ZM221.724 120.553V113.567H223.81L223.824 120.553H221.724ZM227.76 120.553H225.688V110.795H227.76V120.553ZM233.481 112.503V110.893H235.637V112.503H233.481ZM233.523 120.553V113.567H235.609L235.623 120.553H233.523ZM240.875 120.763C240.137 120.763 239.484 120.651 238.915 120.427C238.345 120.203 237.897 119.816 237.571 119.265C237.253 118.714 237.095 117.944 237.095 116.955C237.095 115.807 237.375 114.902 237.935 114.239C238.495 113.576 239.344 113.245 240.483 113.245C240.651 113.245 240.889 113.264 241.197 113.301C241.505 113.338 241.803 113.436 242.093 113.595V110.557H244.165V118.705C244.165 119.162 244.006 119.545 243.689 119.853C243.371 120.152 242.961 120.38 242.457 120.539C241.953 120.688 241.425 120.763 240.875 120.763ZM240.959 119.013C241.295 119.013 241.565 118.971 241.771 118.887C241.985 118.794 242.093 118.658 242.093 118.481V115.219C241.738 115.023 241.374 114.925 241.001 114.925C240.403 114.925 239.951 115.079 239.643 115.387C239.344 115.695 239.195 116.236 239.195 117.011C239.195 117.636 239.321 118.126 239.573 118.481C239.834 118.836 240.296 119.013 240.959 119.013ZM252.617 120.763C252.038 120.763 251.516 120.693 251.049 120.553C250.582 120.404 250.209 120.156 249.929 119.811C249.649 119.456 249.509 118.966 249.509 118.341C249.509 117.688 249.714 117.165 250.125 116.773C250.536 116.372 251.175 116.171 252.043 116.171C252.407 116.171 252.757 116.218 253.093 116.311C253.438 116.404 253.732 116.516 253.975 116.647V116.199C253.975 115.77 253.835 115.462 253.555 115.275C253.284 115.079 252.902 114.981 252.407 114.981C251.987 114.981 251.567 115.056 251.147 115.205C250.727 115.345 250.396 115.518 250.153 115.723V113.875C250.377 113.726 250.746 113.586 251.259 113.455C251.782 113.324 252.356 113.259 252.981 113.259C253.252 113.259 253.56 113.292 253.905 113.357C254.26 113.413 254.6 113.53 254.927 113.707C255.254 113.875 255.52 114.122 255.725 114.449C255.94 114.776 256.047 115.205 256.047 115.737L256.033 119.083C256.024 119.69 255.72 120.124 255.123 120.385C254.526 120.637 253.69 120.763 252.617 120.763ZM251.581 118.383C251.581 118.663 251.693 118.887 251.917 119.055C252.15 119.214 252.407 119.293 252.687 119.293C253.163 119.293 253.494 119.26 253.681 119.195C253.877 119.13 253.975 118.999 253.975 118.803V117.711C253.639 117.599 253.28 117.543 252.897 117.543C252.02 117.543 251.581 117.823 251.581 118.383ZM257.899 114.071C258.132 113.94 258.459 113.814 258.879 113.693C259.308 113.572 259.761 113.474 260.237 113.399C260.722 113.315 261.165 113.273 261.567 113.273C262.519 113.273 263.256 113.46 263.779 113.833C264.311 114.206 264.577 114.86 264.577 115.793V120.553H262.491V116.213C262.491 115.849 262.388 115.555 262.183 115.331C261.977 115.107 261.623 114.995 261.119 114.995C260.904 114.995 260.689 115.023 260.475 115.079C260.26 115.126 260.097 115.177 259.985 115.233V120.553H257.899V114.071ZM269.818 120.763C269.081 120.763 268.427 120.651 267.858 120.427C267.289 120.203 266.841 119.816 266.514 119.265C266.197 118.714 266.038 117.944 266.038 116.955C266.038 115.807 266.318 114.902 266.878 114.239C267.438 113.576 268.287 113.245 269.426 113.245C269.594 113.245 269.832 113.264 270.14 113.301C270.448 113.338 270.747 113.436 271.036 113.595V110.557H273.108V118.705C273.108 119.162 272.949 119.545 272.632 119.853C272.315 120.152 271.904 120.38 271.4 120.539C270.896 120.688 270.369 120.763 269.818 120.763ZM269.902 119.013C270.238 119.013 270.509 118.971 270.714 118.887C270.929 118.794 271.036 118.658 271.036 118.481V115.219C270.681 115.023 270.317 114.925 269.944 114.925C269.347 114.925 268.894 115.079 268.586 115.387C268.287 115.695 268.138 116.236 268.138 117.011C268.138 117.636 268.264 118.126 268.516 118.481C268.777 118.836 269.239 119.013 269.902 119.013ZM26.578 136.763C26.41 136.763 26.1487 136.744 25.794 136.707C25.4487 136.67 25.1174 136.562 24.8 136.385V139.087H22.756V130.967C22.756 130.566 22.91 130.239 23.218 129.987C23.526 129.735 23.932 129.548 24.436 129.427C24.9494 129.296 25.514 129.231 26.13 129.231C26.83 129.231 27.4507 129.352 27.992 129.595C28.5334 129.828 28.9534 130.225 29.252 130.785C29.56 131.345 29.714 132.11 29.714 133.081C29.714 133.809 29.588 134.453 29.336 135.013C29.0934 135.564 28.734 135.993 28.258 136.301C27.7914 136.609 27.2314 136.763 26.578 136.763ZM25.962 135.083C26.5127 135.083 26.928 134.929 27.208 134.621C27.488 134.313 27.628 133.776 27.628 133.011C27.628 132.367 27.516 131.868 27.292 131.513C27.068 131.158 26.6527 130.981 26.046 130.981C25.598 130.981 25.276 131.028 25.08 131.121C24.8934 131.205 24.8 131.317 24.8 131.457V134.789C24.9774 134.892 25.1687 134.966 25.374 135.013C25.5887 135.06 25.7847 135.083 25.962 135.083ZM33.8942 136.763C33.3156 136.763 32.7929 136.693 32.3262 136.553C31.8596 136.404 31.4862 136.156 31.2062 135.811C30.9262 135.456 30.7862 134.966 30.7862 134.341C30.7862 133.688 30.9916 133.165 31.4022 132.773C31.8129 132.372 32.4522 132.171 33.3202 132.171C33.6842 132.171 34.0342 132.218 34.3702 132.311C34.7156 132.404 35.0096 132.516 35.2522 132.647V132.199C35.2522 131.77 35.1122 131.462 34.8322 131.275C34.5616 131.079 34.1789 130.981 33.6842 130.981C33.2642 130.981 32.8442 131.056 32.4242 131.205C32.0042 131.345 31.6729 131.518 31.4302 131.723V129.875C31.6542 129.726 32.0229 129.586 32.5362 129.455C33.0589 129.324 33.6329 129.259 34.2582 129.259C34.5289 129.259 34.8369 129.292 35.1822 129.357C35.5369 129.413 35.8776 129.53 36.2042 129.707C36.5309 129.875 36.7969 130.122 37.0022 130.449C37.2169 130.776 37.3242 131.205 37.3242 131.737L37.3102 135.083C37.3009 135.69 36.9976 136.124 36.4002 136.385C35.8029 136.637 34.9676 136.763 33.8942 136.763ZM32.8582 134.383C32.8582 134.663 32.9702 134.887 33.1942 135.055C33.4276 135.214 33.6842 135.293 33.9642 135.293C34.4402 135.293 34.7716 135.26 34.9582 135.195C35.1542 135.13 35.2522 134.999 35.2522 134.803V133.711C34.9162 133.599 34.5569 133.543 34.1742 133.543C33.2969 133.543 32.8582 133.823 32.8582 134.383ZM41.276 136.763C40.772 136.763 40.338 136.707 39.974 136.595C39.6193 136.492 39.288 136.376 38.98 136.245V134.411C39.26 134.616 39.6006 134.812 40.002 134.999C40.4126 135.176 40.8653 135.265 41.36 135.265C41.696 135.265 41.9293 135.209 42.06 135.097C42.2 134.976 42.27 134.831 42.27 134.663C42.27 134.504 42.2 134.378 42.06 134.285C41.92 134.182 41.738 134.098 41.514 134.033C41.29 133.968 41.052 133.907 40.8 133.851C40.492 133.786 40.1933 133.678 39.904 133.529C39.624 133.37 39.3906 133.146 39.204 132.857C39.0266 132.558 38.938 132.176 38.938 131.709C38.938 131.261 39.0266 130.883 39.204 130.575C39.3813 130.267 39.6146 130.02 39.904 129.833C40.1933 129.646 40.506 129.516 40.842 129.441C41.178 129.357 41.5046 129.32 41.822 129.329C42.4006 129.348 42.858 129.413 43.194 129.525C43.53 129.628 43.8426 129.763 44.132 129.931V131.569C43.8146 131.392 43.4973 131.228 43.18 131.079C42.872 130.92 42.5173 130.841 42.116 130.841C41.752 130.841 41.4906 130.902 41.332 131.023C41.1733 131.135 41.094 131.28 41.094 131.457C41.094 131.728 41.2106 131.914 41.444 132.017C41.6773 132.12 41.9526 132.213 42.27 132.297C42.5033 132.353 42.746 132.423 42.998 132.507C43.25 132.582 43.4833 132.694 43.698 132.843C43.9126 132.983 44.0853 133.184 44.216 133.445C44.356 133.706 44.426 134.042 44.426 134.453C44.4166 135.022 44.2626 135.475 43.964 135.811C43.6653 136.147 43.278 136.39 42.802 136.539C42.326 136.688 41.8173 136.763 41.276 136.763ZM48.0299 136.763C47.5259 136.763 47.0919 136.707 46.7279 136.595C46.3732 136.492 46.0419 136.376 45.7339 136.245V134.411C46.0139 134.616 46.3545 134.812 46.7559 134.999C47.1665 135.176 47.6192 135.265 48.1139 135.265C48.4499 135.265 48.6832 135.209 48.8139 135.097C48.9539 134.976 49.0239 134.831 49.0239 134.663C49.0239 134.504 48.9539 134.378 48.8139 134.285C48.6739 134.182 48.4919 134.098 48.2679 134.033C48.0439 133.968 47.8059 133.907 47.5539 133.851C47.2459 133.786 46.9472 133.678 46.6579 133.529C46.3779 133.37 46.1445 133.146 45.9579 132.857C45.7805 132.558 45.6919 132.176 45.6919 131.709C45.6919 131.261 45.7805 130.883 45.9579 130.575C46.1352 130.267 46.3685 130.02 46.6579 129.833C46.9472 129.646 47.2599 129.516 47.5959 129.441C47.9319 129.357 48.2585 129.32 48.5759 129.329C49.1545 129.348 49.6119 129.413 49.9479 129.525C50.2839 129.628 50.5965 129.763 50.8859 129.931V131.569C50.5685 131.392 50.2512 131.228 49.9339 131.079C49.6259 130.92 49.2712 130.841 48.8699 130.841C48.5059 130.841 48.2445 130.902 48.0859 131.023C47.9272 131.135 47.8479 131.28 47.8479 131.457C47.8479 131.728 47.9645 131.914 48.1979 132.017C48.4312 132.12 48.7065 132.213 49.0239 132.297C49.2572 132.353 49.4999 132.423 49.7519 132.507C50.0039 132.582 50.2372 132.694 50.4519 132.843C50.6665 132.983 50.8392 133.184 50.9699 133.445C51.1099 133.706 51.1799 134.042 51.1799 134.453C51.1705 135.022 51.0165 135.475 50.7179 135.811C50.4192 136.147 50.0319 136.39 49.5559 136.539C49.0799 136.688 48.5712 136.763 48.0299 136.763ZM54.4758 136.553L52.1098 129.469H54.3498L55.5958 133.977L56.7718 129.469H58.3118L59.5298 134.061L60.7898 129.469H62.9878L60.6358 136.553H58.7458L57.5278 132.591L56.3658 136.553H54.4758ZM67.0047 136.763C64.606 136.763 63.4113 135.503 63.4207 132.983C63.4207 131.648 63.724 130.692 64.3307 130.113C64.9373 129.525 65.8287 129.231 67.0047 129.231C68.19 129.231 69.0907 129.534 69.7067 130.141C70.3227 130.738 70.6307 131.686 70.6307 132.983C70.6307 134.224 70.318 135.167 69.6927 135.811C69.0673 136.446 68.1713 136.763 67.0047 136.763ZM67.0047 135.097C67.518 135.097 67.9053 134.92 68.1667 134.565C68.428 134.201 68.5587 133.674 68.5587 132.983C68.5587 132.199 68.4233 131.653 68.1527 131.345C67.8913 131.037 67.5087 130.883 67.0047 130.883C66.4727 130.883 66.0853 131.042 65.8427 131.359C65.6 131.676 65.4787 132.218 65.4787 132.983C65.4787 133.692 65.6 134.224 65.8427 134.579C66.0947 134.924 66.482 135.097 67.0047 135.097ZM72.0705 136.553V130.211C72.2012 130.108 72.4345 129.982 72.7705 129.833C73.1065 129.684 73.4892 129.553 73.9185 129.441C74.3572 129.32 74.7958 129.259 75.2345 129.259C75.6732 129.259 76.0185 129.292 76.2705 129.357C76.5225 129.422 76.7138 129.506 76.8445 129.609V131.135C76.6298 131.088 76.3498 131.056 76.0045 131.037C75.6592 131.018 75.3138 131.014 74.9685 131.023C74.6325 131.023 74.3618 131.042 74.1565 131.079V136.553H72.0705ZM81.2143 136.763C80.477 136.763 79.8237 136.651 79.2543 136.427C78.685 136.203 78.237 135.816 77.9103 135.265C77.593 134.714 77.4343 133.944 77.4343 132.955C77.4343 131.807 77.7143 130.902 78.2743 130.239C78.8343 129.576 79.6837 129.245 80.8223 129.245C80.9903 129.245 81.2283 129.264 81.5363 129.301C81.8443 129.338 82.143 129.436 82.4323 129.595V126.557H84.5043V134.705C84.5043 135.162 84.3457 135.545 84.0283 135.853C83.711 136.152 83.3003 136.38 82.7963 136.539C82.2923 136.688 81.765 136.763 81.2143 136.763ZM81.2983 135.013C81.6343 135.013 81.905 134.971 82.1103 134.887C82.325 134.794 82.4323 134.658 82.4323 134.481V131.219C82.0777 131.023 81.7137 130.925 81.3403 130.925C80.743 130.925 80.2903 131.079 79.9823 131.387C79.6837 131.695 79.5343 132.236 79.5343 133.011C79.5343 133.636 79.6603 134.126 79.9123 134.481C80.1737 134.836 80.6357 135.013 81.2983 135.013Z" fill="white"/>
<path d="M23.136 55V44.328H25.728V52.968H30.368V55H23.136ZM36.763 55.208C35.707 55.208 34.7897 55.0107 34.011 54.616C33.2323 54.2213 32.6297 53.6133 32.203 52.792C31.7763 51.9707 31.563 50.9307 31.563 49.672C31.563 47.848 32.0163 46.4667 32.923 45.528C33.8297 44.5893 35.1097 44.12 36.763 44.12C37.819 44.12 38.7363 44.3173 39.515 44.712C40.3043 45.1067 40.9123 45.7147 41.339 46.536C41.7657 47.3573 41.979 48.3973 41.979 49.656C41.979 51.4907 41.5203 52.8773 40.603 53.816C39.6963 54.744 38.4163 55.208 36.763 55.208ZM36.763 53.096C37.5843 53.096 38.2137 52.84 38.651 52.328C39.0883 51.8053 39.307 50.9147 39.307 49.656C39.307 48.3867 39.0883 47.5013 38.651 47C38.2137 46.488 37.5843 46.232 36.763 46.232C35.9523 46.232 35.3283 46.4933 34.891 47.016C34.4537 47.528 34.235 48.4187 34.235 49.688C34.235 50.9467 34.4537 51.832 34.891 52.344C35.3283 52.8453 35.9523 53.096 36.763 53.096ZM48.5599 55.208C47.5145 55.208 46.5972 55.0213 45.8079 54.648C45.0292 54.2747 44.4265 53.6827 43.9999 52.872C43.5732 52.0613 43.3599 50.9947 43.3599 49.672C43.3599 48.3707 43.5732 47.3093 43.9999 46.488C44.4265 45.6667 45.0292 45.064 45.8079 44.68C46.5865 44.2853 47.5039 44.088 48.5599 44.088C49.2319 44.088 49.8825 44.1573 50.5119 44.296C51.1519 44.4347 51.7705 44.6267 52.3679 44.872V47.224C51.7279 46.8827 51.1305 46.6107 50.5759 46.408C50.0319 46.2053 49.4665 46.104 48.8799 46.104C48.2719 46.104 47.7492 46.216 47.3119 46.44C46.8852 46.6533 46.5599 47.0213 46.3359 47.544C46.1119 48.056 45.9999 48.76 45.9999 49.656C45.9999 50.5413 46.1119 51.2453 46.3359 51.768C46.5705 52.28 46.8959 52.648 47.3119 52.872C47.7279 53.096 48.2132 53.208 48.7679 53.208C49.0559 53.208 49.3225 53.192 49.5679 53.16C49.8239 53.1173 50.0479 53.048 50.2399 52.952V51.064H48.4799V49.048H52.8319V54.072C52.1705 54.4453 51.4772 54.728 50.7519 54.92C50.0372 55.112 49.3065 55.208 48.5599 55.208ZM55.1048 55V44.328H57.6968V55H55.1048ZM59.9641 55V44.328H62.1721L66.8921 50.68V44.328H69.2761V55H67.3241L62.3481 48.488V55H59.9641Z" fill="black"/>
</g>
<defs>
<clipPath id="clip0">
<rect width="375" height="184" fill="white"/>
</clipPath>
</defs>
</svg>
