<svg width="375" height="184" viewBox="0 0 375 184" fill="none" xmlns="http://www.w3.org/2000/svg">
<g clip-path="url(#clip0)">
<rect width="375" height="184" fill="white"/>
<ellipse cx="88.5" cy="16" rx="302.5" ry="168" fill="#47E6B1"/>
<path d="M-13 16H278V113C278 129.569 264.569 143 248 143H17C0.431459 143 -13 129.569 -13 113V16Z" fill="#47E6B1"/>
<path d="M22.826 104.553V95.2152H24.758L28.888 100.773V95.2152H30.974V104.553H29.266L24.912 98.8552V104.553H22.826ZM36.0929 104.763C35.3742 104.763 34.7442 104.618 34.2029 104.329C33.6616 104.03 33.2416 103.61 32.9429 103.069C32.6442 102.528 32.4949 101.874 32.4949 101.109C32.4949 99.8772 32.7982 98.9252 33.4049 98.2532C34.0209 97.5718 34.8936 97.2312 36.0229 97.2312C37.1896 97.2312 38.0296 97.6092 38.5429 98.3652C39.0562 99.1118 39.3082 100.176 39.2989 101.557H34.6229C34.7069 102.033 34.9076 102.397 35.2249 102.649C35.5516 102.901 36.0089 103.027 36.5969 103.027C36.9889 103.027 37.3716 102.966 37.7449 102.845C38.1276 102.714 38.4356 102.598 38.6689 102.495V104.287C38.3329 104.427 37.9549 104.539 37.5349 104.623C37.1242 104.716 36.6436 104.763 36.0929 104.763ZM35.9389 98.8272C35.6029 98.8272 35.3136 98.9345 35.0709 99.1492C34.8376 99.3545 34.6836 99.7138 34.6089 100.227H37.2269C37.1616 99.7232 37.0262 99.3638 36.8209 99.1492C36.6156 98.9345 36.3216 98.8272 35.9389 98.8272ZM42.5402 104.553L40.1742 97.4692H42.4142L43.6602 101.977L44.8362 97.4692H46.3762L47.5942 102.061L48.8542 97.4692H51.0522L48.7002 104.553H46.8102L45.5922 100.591L44.4302 104.553H42.5402ZM59.5294 104.763C58.5401 104.763 57.7374 104.53 57.1214 104.063C56.5054 103.596 56.1974 102.859 56.1974 101.851V97.4692H58.2834V101.683C58.2834 102.131 58.3814 102.467 58.5774 102.691C58.7828 102.906 59.1048 103.013 59.5434 103.013C59.9821 103.013 60.2994 102.906 60.4954 102.691C60.7008 102.467 60.8034 102.131 60.8034 101.683V97.4692H62.7634V101.851C62.7634 102.859 62.4741 103.596 61.8954 104.063C61.3168 104.53 60.5281 104.763 59.5294 104.763ZM66.7056 104.763C66.2016 104.763 65.7676 104.707 65.4036 104.595C65.049 104.492 64.7176 104.376 64.4096 104.245V102.411C64.6896 102.616 65.0303 102.812 65.4316 102.999C65.8423 103.176 66.295 103.265 66.7896 103.265C67.1256 103.265 67.359 103.209 67.4896 103.097C67.6296 102.976 67.6996 102.831 67.6996 102.663C67.6996 102.504 67.6296 102.378 67.4896 102.285C67.3496 102.182 67.1676 102.098 66.9436 102.033C66.7196 101.968 66.4816 101.907 66.2296 101.851C65.9216 101.786 65.623 101.678 65.3336 101.529C65.0536 101.37 64.8203 101.146 64.6336 100.857C64.4563 100.558 64.3676 100.176 64.3676 99.7092C64.3676 99.2612 64.4563 98.8832 64.6336 98.5752C64.811 98.2672 65.0443 98.0198 65.3336 97.8332C65.623 97.6465 65.9356 97.5158 66.2716 97.4412C66.6076 97.3572 66.9343 97.3198 67.2516 97.3292C67.8303 97.3478 68.2876 97.4132 68.6236 97.5252C68.9596 97.6278 69.2723 97.7632 69.5616 97.9312V99.5692C69.2443 99.3918 68.927 99.2285 68.6096 99.0792C68.3016 98.9205 67.947 98.8412 67.5456 98.8412C67.1816 98.8412 66.9203 98.9018 66.7616 99.0232C66.603 99.1352 66.5236 99.2798 66.5236 99.4572C66.5236 99.7278 66.6403 99.9145 66.8736 100.017C67.107 100.12 67.3823 100.213 67.6996 100.297C67.933 100.353 68.1756 100.423 68.4276 100.507C68.6796 100.582 68.913 100.694 69.1276 100.843C69.3423 100.983 69.515 101.184 69.6456 101.445C69.7856 101.706 69.8556 102.042 69.8556 102.453C69.8463 103.022 69.6923 103.475 69.3936 103.811C69.095 104.147 68.7076 104.39 68.2316 104.539C67.7556 104.688 67.247 104.763 66.7056 104.763ZM74.5655 104.763C73.8469 104.763 73.2169 104.618 72.6755 104.329C72.1342 104.03 71.7142 103.61 71.4155 103.069C71.1169 102.528 70.9675 101.874 70.9675 101.109C70.9675 99.8772 71.2709 98.9252 71.8775 98.2532C72.4935 97.5718 73.3662 97.2312 74.4955 97.2312C75.6622 97.2312 76.5022 97.6092 77.0155 98.3652C77.5289 99.1118 77.7809 100.176 77.7715 101.557H73.0955C73.1795 102.033 73.3802 102.397 73.6975 102.649C74.0242 102.901 74.4815 103.027 75.0695 103.027C75.4615 103.027 75.8442 102.966 76.2175 102.845C76.6002 102.714 76.9082 102.598 77.1415 102.495V104.287C76.8055 104.427 76.4275 104.539 76.0075 104.623C75.5969 104.716 75.1162 104.763 74.5655 104.763ZM74.4115 98.8272C74.0755 98.8272 73.7862 98.9345 73.5435 99.1492C73.3102 99.3545 73.1562 99.7138 73.0815 100.227H75.6995C75.6342 99.7232 75.4989 99.3638 75.2935 99.1492C75.0882 98.9345 74.7942 98.8272 74.4115 98.8272ZM79.2209 104.553V98.2112C79.3515 98.1085 79.5849 97.9825 79.9209 97.8332C80.2569 97.6838 80.6395 97.5532 81.0689 97.4412C81.5075 97.3198 81.9462 97.2592 82.3849 97.2592C82.8235 97.2592 83.1689 97.2918 83.4209 97.3572C83.6729 97.4225 83.8642 97.5065 83.9949 97.6092V99.1352C83.7802 99.0885 83.5002 99.0558 83.1549 99.0372C82.8095 99.0185 82.4642 99.0138 82.1189 99.0232C81.7829 99.0232 81.5122 99.0418 81.3069 99.0792V104.553H79.2209ZM90.6743 101.963V101.627C90.6743 101.123 90.7443 100.703 90.8843 100.367C91.0243 100.031 91.197 99.7558 91.4023 99.5412C91.6076 99.3172 91.813 99.1212 92.0183 98.9532C92.2236 98.7758 92.3963 98.5985 92.5363 98.4212C92.6763 98.2438 92.7463 98.0292 92.7463 97.7772C92.7463 97.3105 92.6016 97.0025 92.3123 96.8532C92.0323 96.7038 91.6963 96.6292 91.3043 96.6292C90.931 96.6292 90.5623 96.6945 90.1983 96.8252C89.8343 96.9465 89.5263 97.1052 89.2743 97.3012V95.7192C89.4516 95.5978 89.7456 95.4672 90.1563 95.3272C90.5763 95.1778 91.0383 95.1032 91.5423 95.1032C92.4383 95.1032 93.1383 95.3458 93.6423 95.8312C94.1463 96.3165 94.3983 96.9652 94.3983 97.7772C94.3983 98.1878 94.3283 98.5238 94.1883 98.7852C94.0483 99.0465 93.8756 99.2752 93.6703 99.4712C93.465 99.6578 93.2596 99.8445 93.0543 100.031C92.849 100.218 92.6763 100.442 92.5363 100.703C92.3963 100.955 92.3263 101.282 92.3263 101.683V101.963H90.6743ZM90.5763 104.553V102.957H92.4243V104.553H90.5763ZM22.826 120.553V111.215H27.376C28.4307 111.215 29.2567 111.462 29.854 111.957C30.4514 112.442 30.75 113.18 30.75 114.169C30.75 114.561 30.6754 114.944 30.526 115.317C30.386 115.681 30.1714 116.008 29.882 116.297C29.602 116.577 29.252 116.778 28.832 116.899L31.226 120.553H28.342L26.494 117.333H25.094V120.553H22.826ZM25.094 115.667H26.998C27.3994 115.667 27.7167 115.56 27.95 115.345C28.1834 115.13 28.3 114.776 28.3 114.281C28.3 113.852 28.1974 113.525 27.992 113.301C27.7867 113.077 27.488 112.965 27.096 112.965H25.094V115.667ZM32.7518 120.553V111.215H39.1498V112.965H35.0198V114.995H38.6038V116.759H35.0198V118.803H39.1498V120.553H32.7518ZM45.2086 120.735C44.294 120.735 43.4913 120.572 42.8006 120.245C42.1193 119.918 41.592 119.4 41.2186 118.691C40.8453 117.982 40.6586 117.048 40.6586 115.891C40.6586 114.752 40.8453 113.824 41.2186 113.105C41.592 112.386 42.1193 111.859 42.8006 111.523C43.482 111.178 44.2846 111.005 45.2086 111.005C45.7966 111.005 46.366 111.066 46.9166 111.187C47.4766 111.308 48.018 111.476 48.5406 111.691V113.749C47.9806 113.45 47.458 113.212 46.9726 113.035C46.4966 112.858 46.002 112.769 45.4886 112.769C44.9566 112.769 44.4993 112.867 44.1166 113.063C43.7433 113.25 43.4586 113.572 43.2626 114.029C43.0666 114.477 42.9686 115.093 42.9686 115.877C42.9686 116.652 43.0666 117.268 43.2626 117.725C43.468 118.173 43.7526 118.495 44.1166 118.691C44.4806 118.887 44.9053 118.985 45.3906 118.985C45.6426 118.985 45.876 118.971 46.0906 118.943C46.3146 118.906 46.5106 118.845 46.6786 118.761V117.109H45.1386V115.345H48.9466V119.741C48.368 120.068 47.7613 120.315 47.1266 120.483C46.5013 120.651 45.862 120.735 45.2086 120.735ZM50.9354 120.553V111.215H53.2034V120.553H50.9354ZM58.3234 120.735C57.614 120.735 56.998 120.684 56.4754 120.581C55.962 120.488 55.4767 120.329 55.0194 120.105V117.949C55.4487 118.294 55.934 118.556 56.4754 118.733C57.0167 118.91 57.5347 118.999 58.0294 118.999C58.44 118.999 58.762 118.92 58.9954 118.761C59.2287 118.602 59.3454 118.35 59.3454 118.005C59.3454 117.753 59.238 117.552 59.0234 117.403C58.818 117.254 58.538 117.118 58.1834 116.997C57.838 116.876 57.4554 116.74 57.0354 116.591C56.6714 116.47 56.3214 116.311 55.9854 116.115C55.6587 115.919 55.388 115.653 55.1734 115.317C54.968 114.981 54.8654 114.533 54.8654 113.973C54.8654 113.46 54.9914 112.979 55.2434 112.531C55.4954 112.074 55.8874 111.705 56.4194 111.425C56.9514 111.145 57.6327 111.005 58.4634 111.005C59.0327 111.005 59.5134 111.056 59.9054 111.159C60.3067 111.262 60.722 111.416 61.1514 111.621V113.791C60.8247 113.539 60.4467 113.31 60.0174 113.105C59.5974 112.9 59.154 112.783 58.6874 112.755C58.258 112.736 57.8987 112.806 57.6094 112.965C57.32 113.124 57.1754 113.371 57.1754 113.707C57.1754 113.968 57.2547 114.174 57.4134 114.323C57.572 114.472 57.7867 114.598 58.0574 114.701C58.3374 114.794 58.6547 114.897 59.0094 115.009C59.5134 115.158 59.966 115.336 60.3674 115.541C60.7687 115.746 61.086 116.022 61.3194 116.367C61.5527 116.712 61.6694 117.165 61.6694 117.725C61.6694 118.294 61.5387 118.808 61.2774 119.265C61.016 119.713 60.6334 120.072 60.1294 120.343C59.6347 120.604 59.0327 120.735 58.3234 120.735ZM65.2274 120.553V112.965H62.6094V111.215H70.1554V112.965H67.4954V120.553H65.2274ZM71.4842 120.553V111.215H77.8822V112.965H73.7522V114.995H77.3362V116.759H73.7522V118.803H77.8822V120.553H71.4842ZM79.7831 120.553V111.215H84.3331C85.3877 111.215 86.2137 111.462 86.8111 111.957C87.4084 112.442 87.7071 113.18 87.7071 114.169C87.7071 114.561 87.6324 114.944 87.4831 115.317C87.3431 115.681 87.1284 116.008 86.8391 116.297C86.5591 116.577 86.2091 116.778 85.7891 116.899L88.1831 120.553H85.2991L83.4511 117.333H82.0511V120.553H79.7831ZM82.0511 115.667H83.9551C84.3564 115.667 84.6737 115.56 84.9071 115.345C85.1404 115.13 85.2571 114.776 85.2571 114.281C85.2571 113.852 85.1544 113.525 84.9491 113.301C84.7437 113.077 84.4451 112.965 84.0531 112.965H82.0511V115.667ZM93.578 120.553V111.215H95.51L99.64 116.773V111.215H101.726V120.553H100.018L95.664 114.855V120.553H93.578ZM107.867 120.735C106.943 120.735 106.14 120.562 105.459 120.217C104.778 119.872 104.25 119.34 103.877 118.621C103.504 117.902 103.317 116.992 103.317 115.891C103.317 114.295 103.714 113.086 104.507 112.265C105.3 111.444 106.42 111.033 107.867 111.033C108.791 111.033 109.594 111.206 110.275 111.551C110.966 111.896 111.498 112.428 111.871 113.147C112.244 113.866 112.431 114.776 112.431 115.877C112.431 117.482 112.03 118.696 111.227 119.517C110.434 120.329 109.314 120.735 107.867 120.735ZM107.867 118.887C108.586 118.887 109.136 118.663 109.519 118.215C109.902 117.758 110.093 116.978 110.093 115.877C110.093 114.766 109.902 113.992 109.519 113.553C109.136 113.105 108.586 112.881 107.867 112.881C107.158 112.881 106.612 113.11 106.229 113.567C105.846 114.015 105.655 114.794 105.655 115.905C105.655 117.006 105.846 117.781 106.229 118.229C106.612 118.668 107.158 118.887 107.867 118.887ZM115.458 120.553L112.84 111.215H115.318L116.788 117.753L118.678 111.215H120.428L122.332 117.767L123.802 111.215H126.28L123.662 120.553H121.422L119.56 114.505L117.698 120.553H115.458ZM134.318 120.833C133.497 120.833 132.885 120.642 132.484 120.259C132.083 119.867 131.882 119.316 131.882 118.607V115.065H130.846V113.469H131.882V111.523H134.066V113.469H135.62V115.065H134.066V118.341C134.066 118.584 134.117 118.766 134.22 118.887C134.323 118.999 134.495 119.055 134.738 119.055C135.065 119.055 135.359 118.957 135.62 118.761V120.539C135.415 120.651 135.2 120.726 134.976 120.763C134.752 120.81 134.533 120.833 134.318 120.833ZM140.395 120.763C137.997 120.763 136.802 119.503 136.811 116.983C136.811 115.648 137.115 114.692 137.721 114.113C138.328 113.525 139.219 113.231 140.395 113.231C141.581 113.231 142.481 113.534 143.097 114.141C143.713 114.738 144.021 115.686 144.021 116.983C144.021 118.224 143.709 119.167 143.083 119.811C142.458 120.446 141.562 120.763 140.395 120.763ZM140.395 119.097C140.909 119.097 141.296 118.92 141.557 118.565C141.819 118.201 141.949 117.674 141.949 116.983C141.949 116.199 141.814 115.653 141.543 115.345C141.282 115.037 140.899 114.883 140.395 114.883C139.863 114.883 139.476 115.042 139.233 115.359C138.991 115.676 138.869 116.218 138.869 116.983C138.869 117.692 138.991 118.224 139.233 118.579C139.485 118.924 139.873 119.097 140.395 119.097ZM152.578 120.763C152.177 120.763 151.785 120.735 151.402 120.679C151.02 120.632 150.67 120.544 150.352 120.413C150.044 120.282 149.797 120.096 149.61 119.853C149.424 119.61 149.33 119.298 149.33 118.915V110.851H151.374V113.721C151.645 113.553 151.944 113.436 152.27 113.371C152.606 113.306 152.882 113.273 153.096 113.273C154.132 113.273 154.926 113.59 155.476 114.225C156.027 114.85 156.302 115.77 156.302 116.983C156.302 117.926 156.139 118.677 155.812 119.237C155.495 119.788 155.056 120.18 154.496 120.413C153.936 120.646 153.297 120.763 152.578 120.763ZM152.55 119.027C153.157 119.027 153.586 118.85 153.838 118.495C154.09 118.14 154.216 117.678 154.216 117.109C154.216 116.306 154.062 115.746 153.754 115.429C153.456 115.102 153.068 114.939 152.592 114.939C152.406 114.939 152.2 114.962 151.976 115.009C151.752 115.056 151.552 115.13 151.374 115.233V118.369C151.374 118.621 151.486 118.794 151.71 118.887C151.944 118.98 152.224 119.027 152.55 119.027ZM160.944 120.763C160.226 120.763 159.596 120.618 159.054 120.329C158.513 120.03 158.093 119.61 157.794 119.069C157.496 118.528 157.346 117.874 157.346 117.109C157.346 115.877 157.65 114.925 158.256 114.253C158.872 113.572 159.745 113.231 160.874 113.231C162.041 113.231 162.881 113.609 163.394 114.365C163.908 115.112 164.16 116.176 164.15 117.557H159.474C159.558 118.033 159.759 118.397 160.076 118.649C160.403 118.901 160.86 119.027 161.448 119.027C161.84 119.027 162.223 118.966 162.596 118.845C162.979 118.714 163.287 118.598 163.52 118.495V120.287C163.184 120.427 162.806 120.539 162.386 120.623C161.976 120.716 161.495 120.763 160.944 120.763ZM160.79 114.827C160.454 114.827 160.165 114.934 159.922 115.149C159.689 115.354 159.535 115.714 159.46 116.227H162.078C162.013 115.723 161.878 115.364 161.672 115.149C161.467 114.934 161.173 114.827 160.79 114.827ZM168.918 120.735C168.246 120.735 167.625 120.604 167.056 120.343C166.496 120.072 166.048 119.671 165.712 119.139C165.376 118.598 165.208 117.921 165.208 117.109C165.208 116.241 165.366 115.527 165.684 114.967C166.001 114.398 166.435 113.973 166.986 113.693C167.546 113.413 168.185 113.273 168.904 113.273C169.286 113.273 169.678 113.315 170.08 113.399C170.49 113.474 170.85 113.581 171.158 113.721V115.513C170.831 115.373 170.509 115.252 170.192 115.149C169.884 115.046 169.566 114.995 169.24 114.995C168.652 114.995 168.176 115.144 167.812 115.443C167.457 115.732 167.28 116.208 167.28 116.871C167.28 117.571 167.434 118.098 167.742 118.453C168.059 118.808 168.591 118.985 169.338 118.985C169.674 118.985 170.005 118.924 170.332 118.803C170.658 118.682 170.938 118.556 171.172 118.425V120.203C170.845 120.371 170.504 120.502 170.15 120.595C169.795 120.688 169.384 120.735 168.918 120.735ZM175.819 120.763C173.42 120.763 172.226 119.503 172.235 116.983C172.235 115.648 172.538 114.692 173.145 114.113C173.752 113.525 174.643 113.231 175.819 113.231C177.004 113.231 177.905 113.534 178.521 114.141C179.137 114.738 179.445 115.686 179.445 116.983C179.445 118.224 179.132 119.167 178.507 119.811C177.882 120.446 176.986 120.763 175.819 120.763ZM175.819 119.097C176.332 119.097 176.72 118.92 176.981 118.565C177.242 118.201 177.373 117.674 177.373 116.983C177.373 116.199 177.238 115.653 176.967 115.345C176.706 115.037 176.323 114.883 175.819 114.883C175.287 114.883 174.9 115.042 174.657 115.359C174.414 115.676 174.293 116.218 174.293 116.983C174.293 117.692 174.414 118.224 174.657 118.579C174.909 118.924 175.296 119.097 175.819 119.097ZM187.465 115.793V120.553H185.379V116.213C185.379 115.849 185.276 115.555 185.071 115.331C184.866 115.107 184.511 114.995 184.007 114.995C183.792 114.995 183.592 115.023 183.405 115.079C183.228 115.126 183.083 115.177 182.971 115.233V120.553H180.885V114.071C181.118 113.94 181.445 113.814 181.865 113.693C182.294 113.572 182.747 113.474 183.223 113.399C183.708 113.315 184.152 113.273 184.553 113.273C185.001 113.273 185.398 113.315 185.743 113.399C186.098 113.474 186.396 113.595 186.639 113.763C187.012 113.614 187.4 113.497 187.801 113.413C188.212 113.32 188.594 113.273 188.949 113.273C189.901 113.273 190.624 113.46 191.119 113.833C191.614 114.206 191.861 114.86 191.861 115.793V120.553H189.775V116.213C189.775 115.849 189.672 115.555 189.467 115.331C189.262 115.107 188.907 114.995 188.403 114.995C188.207 114.995 188.025 115.023 187.857 115.079C187.689 115.126 187.549 115.191 187.437 115.275C187.456 115.434 187.465 115.606 187.465 115.793ZM196.915 120.763C196.196 120.763 195.566 120.618 195.025 120.329C194.484 120.03 194.064 119.61 193.765 119.069C193.466 118.528 193.317 117.874 193.317 117.109C193.317 115.877 193.62 114.925 194.227 114.253C194.843 113.572 195.716 113.231 196.845 113.231C198.012 113.231 198.852 113.609 199.365 114.365C199.878 115.112 200.13 116.176 200.121 117.557H195.445C195.529 118.033 195.73 118.397 196.047 118.649C196.374 118.901 196.831 119.027 197.419 119.027C197.811 119.027 198.194 118.966 198.567 118.845C198.95 118.714 199.258 118.598 199.491 118.495V120.287C199.155 120.427 198.777 120.539 198.357 120.623C197.946 120.716 197.466 120.763 196.915 120.763ZM196.761 114.827C196.425 114.827 196.136 114.934 195.893 115.149C195.66 115.354 195.506 115.714 195.431 116.227H198.049C197.984 115.723 197.848 115.364 197.643 115.149C197.438 114.934 197.144 114.827 196.761 114.827ZM208.17 120.763C207.591 120.763 207.068 120.693 206.602 120.553C206.135 120.404 205.762 120.156 205.482 119.811C205.202 119.456 205.062 118.966 205.062 118.341C205.062 117.688 205.267 117.165 205.678 116.773C206.088 116.372 206.728 116.171 207.596 116.171C207.96 116.171 208.31 116.218 208.646 116.311C208.991 116.404 209.285 116.516 209.528 116.647V116.199C209.528 115.77 209.388 115.462 209.108 115.275C208.837 115.079 208.454 114.981 207.96 114.981C207.54 114.981 207.12 115.056 206.7 115.205C206.28 115.345 205.948 115.518 205.706 115.723V113.875C205.93 113.726 206.298 113.586 206.812 113.455C207.334 113.324 207.908 113.259 208.534 113.259C208.804 113.259 209.112 113.292 209.458 113.357C209.812 113.413 210.153 113.53 210.48 113.707C210.806 113.875 211.072 114.122 211.278 114.449C211.492 114.776 211.6 115.205 211.6 115.737L211.586 119.083C211.576 119.69 211.273 120.124 210.676 120.385C210.078 120.637 209.243 120.763 208.17 120.763ZM207.134 118.383C207.134 118.663 207.246 118.887 207.47 119.055C207.703 119.214 207.96 119.293 208.24 119.293C208.716 119.293 209.047 119.26 209.234 119.195C209.43 119.13 209.528 118.999 209.528 118.803V117.711C209.192 117.599 208.832 117.543 208.45 117.543C207.572 117.543 207.134 117.823 207.134 118.383ZM219.084 120.735C218.664 120.735 218.268 120.684 217.894 120.581C217.53 120.488 217.194 120.366 216.886 120.217V118.145C217.194 118.369 217.479 118.556 217.74 118.705C218.002 118.845 218.268 118.915 218.538 118.915C218.94 118.915 219.252 118.817 219.476 118.621C219.71 118.416 219.826 118.08 219.826 117.613V111.215H222.094V117.711C222.094 118.299 222.006 118.789 221.828 119.181C221.66 119.564 221.427 119.872 221.128 120.105C220.839 120.329 220.517 120.488 220.162 120.581C219.808 120.684 219.448 120.735 219.084 120.735ZM226.736 120.763C226.157 120.763 225.635 120.693 225.168 120.553C224.701 120.404 224.328 120.156 224.048 119.811C223.768 119.456 223.628 118.966 223.628 118.341C223.628 117.688 223.833 117.165 224.244 116.773C224.655 116.372 225.294 116.171 226.162 116.171C226.526 116.171 226.876 116.218 227.212 116.311C227.557 116.404 227.851 116.516 228.094 116.647V116.199C228.094 115.77 227.954 115.462 227.674 115.275C227.403 115.079 227.021 114.981 226.526 114.981C226.106 114.981 225.686 115.056 225.266 115.205C224.846 115.345 224.515 115.518 224.272 115.723V113.875C224.496 113.726 224.865 113.586 225.378 113.455C225.901 113.324 226.475 113.259 227.1 113.259C227.371 113.259 227.679 113.292 228.024 113.357C228.379 113.413 228.719 113.53 229.046 113.707C229.373 113.875 229.639 114.122 229.844 114.449C230.059 114.776 230.166 115.205 230.166 115.737L230.152 119.083C230.143 119.69 229.839 120.124 229.242 120.385C228.645 120.637 227.809 120.763 226.736 120.763ZM225.7 118.383C225.7 118.663 225.812 118.887 226.036 119.055C226.269 119.214 226.526 119.293 226.806 119.293C227.282 119.293 227.613 119.26 227.8 119.195C227.996 119.13 228.094 118.999 228.094 118.803V117.711C227.758 117.599 227.399 117.543 227.016 117.543C226.139 117.543 225.7 117.823 225.7 118.383ZM234.748 120.763C234.169 120.763 233.646 120.693 233.18 120.553C232.713 120.404 232.34 120.156 232.06 119.811C231.78 119.456 231.64 118.966 231.64 118.341C231.64 117.688 231.845 117.165 232.256 116.773C232.666 116.372 233.306 116.171 234.174 116.171C234.538 116.171 234.888 116.218 235.224 116.311C235.569 116.404 235.863 116.516 236.106 116.647V116.199C236.106 115.77 235.966 115.462 235.686 115.275C235.415 115.079 235.032 114.981 234.538 114.981C234.118 114.981 233.698 115.056 233.278 115.205C232.858 115.345 232.526 115.518 232.284 115.723V113.875C232.508 113.726 232.876 113.586 233.39 113.455C233.912 113.324 234.486 113.259 235.112 113.259C235.382 113.259 235.69 113.292 236.036 113.357C236.39 113.413 236.731 113.53 237.058 113.707C237.384 113.875 237.65 114.122 237.856 114.449C238.07 114.776 238.178 115.205 238.178 115.737L238.164 119.083C238.154 119.69 237.851 120.124 237.254 120.385C236.656 120.637 235.821 120.763 234.748 120.763ZM233.712 118.383C233.712 118.663 233.824 118.887 234.048 119.055C234.281 119.214 234.538 119.293 234.818 119.293C235.294 119.293 235.625 119.26 235.812 119.195C236.008 119.13 236.106 118.999 236.106 118.803V117.711C235.77 117.599 235.41 117.543 235.028 117.543C234.15 117.543 233.712 117.823 233.712 118.383ZM242.927 120.833C242.106 120.833 241.495 120.642 241.093 120.259C240.692 119.867 240.491 119.316 240.491 118.607V115.065H239.455V113.469H240.491V111.523H242.675V113.469H244.229V115.065H242.675V118.341C242.675 118.584 242.727 118.766 242.829 118.887C242.932 118.999 243.105 119.055 243.347 119.055C243.674 119.055 243.968 118.957 244.229 118.761V120.539C244.024 120.651 243.809 120.726 243.585 120.763C243.361 120.81 243.142 120.833 242.927 120.833ZM248.543 120.763C247.964 120.763 247.441 120.693 246.975 120.553C246.508 120.404 246.135 120.156 245.855 119.811C245.575 119.456 245.435 118.966 245.435 118.341C245.435 117.688 245.64 117.165 246.051 116.773C246.461 116.372 247.101 116.171 247.969 116.171C248.333 116.171 248.683 116.218 249.019 116.311C249.364 116.404 249.658 116.516 249.901 116.647V116.199C249.901 115.77 249.761 115.462 249.481 115.275C249.21 115.079 248.827 114.981 248.333 114.981C247.913 114.981 247.493 115.056 247.073 115.205C246.653 115.345 246.321 115.518 246.079 115.723V113.875C246.303 113.726 246.671 113.586 247.185 113.455C247.707 113.324 248.281 113.259 248.907 113.259C249.177 113.259 249.485 113.292 249.831 113.357C250.185 113.413 250.526 113.53 250.853 113.707C251.179 113.875 251.445 114.122 251.651 114.449C251.865 114.776 251.973 115.205 251.973 115.737L251.959 119.083C251.949 119.69 251.646 120.124 251.049 120.385C250.451 120.637 249.616 120.763 248.543 120.763ZM247.507 118.383C247.507 118.663 247.619 118.887 247.843 119.055C248.076 119.214 248.333 119.293 248.613 119.293C249.089 119.293 249.42 119.26 249.607 119.195C249.803 119.13 249.901 118.999 249.901 118.803V117.711C249.565 117.599 249.205 117.543 248.823 117.543C247.945 117.543 247.507 117.823 247.507 118.383ZM256.554 120.763C255.976 120.763 255.453 120.693 254.986 120.553C254.52 120.404 254.146 120.156 253.866 119.811C253.586 119.456 253.446 118.966 253.446 118.341C253.446 117.688 253.652 117.165 254.062 116.773C254.473 116.372 255.112 116.171 255.98 116.171C256.344 116.171 256.694 116.218 257.03 116.311C257.376 116.404 257.67 116.516 257.912 116.647V116.199C257.912 115.77 257.772 115.462 257.492 115.275C257.222 115.079 256.839 114.981 256.344 114.981C255.924 114.981 255.504 115.056 255.084 115.205C254.664 115.345 254.333 115.518 254.09 115.723V113.875C254.314 113.726 254.683 113.586 255.196 113.455C255.719 113.324 256.293 113.259 256.918 113.259C257.189 113.259 257.497 113.292 257.842 113.357C258.197 113.413 258.538 113.53 258.864 113.707C259.191 113.875 259.457 114.122 259.662 114.449C259.877 114.776 259.984 115.205 259.984 115.737L259.97 119.083C259.961 119.69 259.658 120.124 259.06 120.385C258.463 120.637 257.628 120.763 256.554 120.763ZM255.518 118.383C255.518 118.663 255.63 118.887 255.854 119.055C256.088 119.214 256.344 119.293 256.624 119.293C257.1 119.293 257.432 119.26 257.618 119.195C257.814 119.13 257.912 118.999 257.912 118.803V117.711C257.576 117.599 257.217 117.543 256.834 117.543C255.957 117.543 255.518 117.823 255.518 118.383ZM272.285 115.793V120.553H270.199V116.213C270.199 115.849 270.097 115.555 269.891 115.331C269.686 115.107 269.331 114.995 268.827 114.995C268.613 114.995 268.412 115.023 268.225 115.079C268.048 115.126 267.903 115.177 267.791 115.233V120.553H265.705V114.071C265.939 113.94 266.265 113.814 266.685 113.693C267.115 113.572 267.567 113.474 268.043 113.399C268.529 113.315 268.972 113.273 269.373 113.273C269.821 113.273 270.218 113.315 270.563 113.399C270.918 113.474 271.217 113.595 271.459 113.763C271.833 113.614 272.22 113.497 272.621 113.413C273.032 113.32 273.415 113.273 273.769 113.273C274.721 113.273 275.445 113.46 275.939 113.833C276.434 114.206 276.681 114.86 276.681 115.793V120.553H274.595V116.213C274.595 115.849 274.493 115.555 274.287 115.331C274.082 115.107 273.727 114.995 273.223 114.995C273.027 114.995 272.845 115.023 272.677 115.079C272.509 115.126 272.369 115.191 272.257 115.275C272.276 115.434 272.285 115.606 272.285 115.793ZM281.735 120.763C281.017 120.763 280.387 120.618 279.845 120.329C279.304 120.03 278.884 119.61 278.585 119.069C278.287 118.528 278.137 117.874 278.137 117.109C278.137 115.877 278.441 114.925 279.047 114.253C279.663 113.572 280.536 113.231 281.665 113.231C282.832 113.231 283.672 113.609 284.185 114.365C284.699 115.112 284.951 116.176 284.941 117.557H280.265C280.349 118.033 280.55 118.397 280.867 118.649C281.194 118.901 281.651 119.027 282.239 119.027C282.631 119.027 283.014 118.966 283.387 118.845C283.77 118.714 284.078 118.598 284.311 118.495V120.287C283.975 120.427 283.597 120.539 283.177 120.623C282.767 120.716 282.286 120.763 281.735 120.763ZM281.581 114.827C281.245 114.827 280.956 114.934 280.713 115.149C280.48 115.354 280.326 115.714 280.251 116.227H282.869C282.804 115.723 282.669 115.364 282.463 115.149C282.258 114.934 281.964 114.827 281.581 114.827ZM292.971 115.793V120.553H290.885V116.213C290.885 115.849 290.782 115.555 290.577 115.331C290.371 115.107 290.017 114.995 289.513 114.995C289.298 114.995 289.097 115.023 288.911 115.079C288.733 115.126 288.589 115.177 288.477 115.233V120.553H286.391V114.071C286.624 113.94 286.951 113.814 287.371 113.693C287.8 113.572 288.253 113.474 288.729 113.399C289.214 113.315 289.657 113.273 290.059 113.273C290.507 113.273 290.903 113.315 291.249 113.399C291.603 113.474 291.902 113.595 292.145 113.763C292.518 113.614 292.905 113.497 293.307 113.413C293.717 113.32 294.1 113.273 294.455 113.273C295.407 113.273 296.13 113.46 296.625 113.833C297.119 114.206 297.367 114.86 297.367 115.793V120.553H295.281V116.213C295.281 115.849 295.178 115.555 294.973 115.331C294.767 115.107 294.413 114.995 293.909 114.995C293.713 114.995 293.531 115.023 293.363 115.079C293.195 115.126 293.055 115.191 292.943 115.275C292.961 115.434 292.971 115.606 292.971 115.793ZM302.463 120.763C302.062 120.763 301.67 120.735 301.287 120.679C300.904 120.632 300.554 120.544 300.237 120.413C299.929 120.282 299.682 120.096 299.495 119.853C299.308 119.61 299.215 119.298 299.215 118.915V110.851H301.259V113.721C301.53 113.553 301.828 113.436 302.155 113.371C302.491 113.306 302.766 113.273 302.981 113.273C304.017 113.273 304.81 113.59 305.361 114.225C305.912 114.85 306.187 115.77 306.187 116.983C306.187 117.926 306.024 118.677 305.697 119.237C305.38 119.788 304.941 120.18 304.381 120.413C303.821 120.646 303.182 120.763 302.463 120.763ZM302.435 119.027C303.042 119.027 303.471 118.85 303.723 118.495C303.975 118.14 304.101 117.678 304.101 117.109C304.101 116.306 303.947 115.746 303.639 115.429C303.34 115.102 302.953 114.939 302.477 114.939C302.29 114.939 302.085 114.962 301.861 115.009C301.637 115.056 301.436 115.13 301.259 115.233V118.369C301.259 118.621 301.371 118.794 301.595 118.887C301.828 118.98 302.108 119.027 302.435 119.027ZM310.829 120.763C310.111 120.763 309.481 120.618 308.939 120.329C308.398 120.03 307.978 119.61 307.679 119.069C307.381 118.528 307.231 117.874 307.231 117.109C307.231 115.877 307.535 114.925 308.141 114.253C308.757 113.572 309.63 113.231 310.759 113.231C311.926 113.231 312.766 113.609 313.279 114.365C313.793 115.112 314.045 116.176 314.035 117.557H309.359C309.443 118.033 309.644 118.397 309.961 118.649C310.288 118.901 310.745 119.027 311.333 119.027C311.725 119.027 312.108 118.966 312.481 118.845C312.864 118.714 313.172 118.598 313.405 118.495V120.287C313.069 120.427 312.691 120.539 312.271 120.623C311.861 120.716 311.38 120.763 310.829 120.763ZM310.675 114.827C310.339 114.827 310.05 114.934 309.807 115.149C309.574 115.354 309.42 115.714 309.345 116.227H311.963C311.898 115.723 311.763 115.364 311.557 115.149C311.352 114.934 311.058 114.827 310.675 114.827ZM315.485 120.553V114.211C315.615 114.108 315.849 113.982 316.185 113.833C316.521 113.684 316.903 113.553 317.333 113.441C317.771 113.32 318.21 113.259 318.649 113.259C319.087 113.259 319.433 113.292 319.685 113.357C319.937 113.422 320.128 113.506 320.259 113.609V115.135C320.044 115.088 319.764 115.056 319.419 115.037C319.073 115.018 318.728 115.014 318.383 115.023C318.047 115.023 317.776 115.042 317.571 115.079V120.553H315.485Z" fill="white"/>
<path d="M26.72 55.208C25.9093 55.208 25.2053 55.1493 24.608 55.032C24.0213 54.9253 23.4667 54.744 22.944 54.488V52.024C23.4347 52.4187 23.9893 52.7173 24.608 52.92C25.2267 53.1227 25.8187 53.224 26.384 53.224C26.8533 53.224 27.2213 53.1333 27.488 52.952C27.7547 52.7707 27.888 52.4827 27.888 52.088C27.888 51.8 27.7653 51.5707 27.52 51.4C27.2853 51.2293 26.9653 51.0747 26.56 50.936C26.1653 50.7973 25.728 50.6427 25.248 50.472C24.832 50.3333 24.432 50.152 24.048 49.928C23.6747 49.704 23.3653 49.4 23.12 49.016C22.8853 48.632 22.768 48.12 22.768 47.48C22.768 46.8933 22.912 46.344 23.2 45.832C23.488 45.3093 23.936 44.888 24.544 44.568C25.152 44.248 25.9307 44.088 26.88 44.088C27.5307 44.088 28.08 44.1467 28.528 44.264C28.9867 44.3813 29.4613 44.5573 29.952 44.792V47.272C29.5787 46.984 29.1467 46.7227 28.656 46.488C28.176 46.2533 27.6693 46.12 27.136 46.088C26.6453 46.0667 26.2347 46.1467 25.904 46.328C25.5733 46.5093 25.408 46.792 25.408 47.176C25.408 47.4747 25.4987 47.7093 25.68 47.88C25.8613 48.0507 26.1067 48.1947 26.416 48.312C26.736 48.4187 27.0987 48.536 27.504 48.664C28.08 48.8347 28.5973 49.0373 29.056 49.272C29.5147 49.5067 29.8773 49.8213 30.144 50.216C30.4107 50.6107 30.544 51.128 30.544 51.768C30.544 52.4187 30.3947 53.0053 30.096 53.528C29.7973 54.04 29.36 54.4507 28.784 54.76C28.2187 55.0587 27.5307 55.208 26.72 55.208ZM32.3704 55V44.328H34.9624V55H32.3704ZM41.9818 55.208C40.9364 55.208 40.0191 55.0213 39.2298 54.648C38.4511 54.2747 37.8484 53.6827 37.4218 52.872C36.9951 52.0613 36.7818 50.9947 36.7818 49.672C36.7818 48.3707 36.9951 47.3093 37.4218 46.488C37.8484 45.6667 38.4511 45.064 39.2298 44.68C40.0084 44.2853 40.9258 44.088 41.9818 44.088C42.6538 44.088 43.3044 44.1573 43.9338 44.296C44.5738 44.4347 45.1924 44.6267 45.7898 44.872V47.224C45.1498 46.8827 44.5524 46.6107 43.9978 46.408C43.4538 46.2053 42.8884 46.104 42.3018 46.104C41.6938 46.104 41.1711 46.216 40.7338 46.44C40.3071 46.6533 39.9818 47.0213 39.7578 47.544C39.5338 48.056 39.4218 48.76 39.4218 49.656C39.4218 50.5413 39.5338 51.2453 39.7578 51.768C39.9924 52.28 40.3178 52.648 40.7338 52.872C41.1498 53.096 41.6351 53.208 42.1898 53.208C42.4778 53.208 42.7444 53.192 42.9898 53.16C43.2458 53.1173 43.4698 53.048 43.6618 52.952V51.064H41.9018V49.048H46.2538V54.072C45.5924 54.4453 44.8991 54.728 44.1737 54.92C43.4591 55.112 42.7284 55.208 41.9818 55.208ZM48.5266 55V44.328H50.7346L55.4546 50.68V44.328H57.8386V55H55.8866L50.9106 48.488V55H48.5266ZM69.4386 55.32C67.796 55.32 66.564 54.9733 65.7426 54.28C64.932 53.5867 64.5266 52.4987 64.5266 51.016V44.328H67.2306V50.904C67.2306 51.7253 67.396 52.3333 67.7266 52.728C68.0573 53.1227 68.5853 53.32 69.3106 53.32C69.972 53.32 70.484 53.1227 70.8466 52.728C71.22 52.3333 71.4066 51.7253 71.4066 50.904V44.328H73.8706V51.016C73.8706 52.008 73.6786 52.824 73.2946 53.464C72.9213 54.0933 72.3986 54.5627 71.7266 54.872C71.0653 55.1707 70.3026 55.32 69.4386 55.32ZM78.728 51.496V55H76.136V44.328H80.936C82.184 44.328 83.1653 44.6107 83.88 45.176C84.5947 45.7413 84.952 46.616 84.952 47.8C84.952 48.984 84.5947 49.896 83.88 50.536C83.1653 51.176 82.184 51.496 80.936 51.496H78.728ZM78.728 49.496H80.616C81.1707 49.496 81.5653 49.352 81.8 49.064C82.0347 48.776 82.152 48.4133 82.152 47.976C82.152 47.4853 82.0347 47.0907 81.8 46.792C81.5653 46.4933 81.1707 46.344 80.616 46.344H78.728V49.496Z" fill="black"/>
</g>
<defs>
<clipPath id="clip0">
<rect width="375" height="184" fill="white"/>
</clipPath>
</defs>
</svg>
